<svg width="300" height="121.2716" viewBox="0 0 318 140" fill="none" xmlns="http://www.w3.org/2000/svg">
<path d="M317.885 93.366C312.072 98.5226 298.525 108.945 269.759 117.461C240.211 126.196 204.288 130.009 169.13 130.009C80.0338 130.009 22.3914 103.898 18.36 69.1612C16.9068 56.1602 27.0946 43.5031 44.1108 32.7523C41.0795 30.5022 39.1888 26.9238 39.0638 22.8922C14.563 35.8932 0.562561 52.8006 0.562561 70.0675C0.562561 108.273 68.7366 140.541 170.037 139.197C205.288 138.744 234.726 133.697 261.368 124.962C293.15 114.774 312.963 99.8665 317.885 93.366ZM69.7366 19.9702C71.7523 19.1889 77.3462 17.1731 82.1589 15.6105C88.0966 13.5947 96.2687 11.1258 96.2687 11.1258C119.879 4.62532 145.958 0.812553 170.255 1.04695C142.27 -0.640675 116.754 1.04695 94.4718 5.07848C94.4718 5.07848 87.0965 6.31295 79.1431 8.32871C79.1431 8.32871 75.3305 9.32878 72.9867 10.0007C70.6429 10.6726 67.3928 11.5789 67.3928 11.5789C65.1583 12.2509 62.9083 13.0322 60.6738 13.8135C62.9083 16.048 64.2521 18.9701 64.3614 22.3297C66.049 21.439 67.8303 20.7671 69.7366 19.9702Z" fill="#ED1941"/>
<path d="M285.54 49.7848C283.978 47.7691 281.509 46.5346 278.384 46.5346C274.352 46.5346 270.212 48.8785 267.977 51.5662C267.852 49.2223 267.071 46.9721 266.852 46.1908L258.68 48.3316C259.133 50.7849 259.805 53.8164 259.805 59.3011V92.5848H268.524V58.973C270.649 56.3947 273.118 54.9414 274.915 54.9414C276.024 54.9414 277.149 55.1602 277.821 56.0509C278.493 57.0666 278.821 58.5198 278.821 61.9888V92.5848H287.556V58.0667C287.665 55.0508 287.337 52.0194 285.54 49.7848ZM243.008 69.8331C243.008 74.5366 243.008 85.9749 237.195 85.9749C230.914 85.9749 231.039 74.6616 231.039 69.7238C231.039 65.1297 231.039 54.3789 236.851 54.3789C243.226 54.2695 243.008 64.9109 243.008 69.8331ZM237.07 46.1908C225.663 46.1908 221.632 58.7386 221.741 69.9425C221.851 81.0371 224.991 93.9286 237.07 93.9286C248.945 93.9286 252.633 81.3808 252.633 69.8331C252.633 54.3789 246.148 46.1908 237.07 46.1908ZM195.662 65.3484C195.772 57.2854 197.569 53.707 201.475 53.707C203.725 53.707 205.069 54.9414 205.96 56.9572C206.631 58.7386 206.96 61.7701 206.96 65.3484H195.662ZM201.366 46.1908C196.897 46.1908 193.194 48.2066 190.506 52.1287C187.6 56.3947 186.365 62.0982 186.365 69.9425C186.365 84.9592 192.194 93.8192 202.491 93.8192C207.303 93.8192 211.444 91.9128 215.366 87.7719L211.897 81.2715C209.21 84.1779 206.522 85.7405 203.272 85.7405C200.584 85.7405 198.35 84.1779 197.006 81.4902C195.881 79.1307 195.662 76.443 195.662 73.5365V72.6458H215.804V70.6144C215.804 60.645 214.585 55.1602 211.444 51.0193C209.1 47.8784 205.631 46.1908 201.366 46.1908ZM168.912 46.5346C164.88 46.5346 160.739 48.8785 158.505 51.5662C158.396 49.2223 157.599 46.9721 157.38 46.1908L149.208 48.3316C149.661 50.7849 150.333 53.8164 150.333 59.3011V92.5848H159.067V58.973C161.193 56.3947 163.646 54.9414 165.443 54.9414C166.568 54.9414 167.677 55.1602 168.349 56.0509C169.021 57.0666 169.365 58.5198 169.365 61.9888V92.5848H178.084V58.0667C178.084 55.0508 177.756 52.0194 175.959 49.7848C174.505 47.8784 172.052 46.5346 168.912 46.5346ZM134.77 29.5021C131.52 29.5021 128.957 32.0804 128.957 35.3307C128.957 38.5809 131.52 41.1592 134.66 41.1592C137.911 41.1592 140.473 38.5809 140.473 35.3307C140.473 32.0804 137.911 29.5021 134.77 29.5021ZM130.41 92.8035H139.254V46.5346L130.41 47.644V92.8035ZM118.879 34.9869C120.441 34.9869 122.019 35.5494 123.019 36.3307L125.488 29.5021C123.129 27.8145 120.551 27.0332 117.316 27.0332C115.066 27.0332 112.722 27.5957 110.597 29.2834C108.472 31.0647 106.222 34.6587 106.222 41.378C106.222 44.2844 106.347 47.3159 106.347 47.3159H103.316V55.0508H106.456V92.6941H115.41V55.1602H122.019L123.691 47.4253H115.41V40.4873C115.41 37.0027 116.754 34.9869 118.879 34.9869ZM85.4089 46.5346C81.3776 46.5346 77.2368 48.8785 75.0024 51.5662C74.893 49.2223 74.1117 46.9721 73.8773 46.1908L65.7052 48.3316C66.1583 50.7849 66.8302 53.8164 66.8302 59.3011V92.5848H75.5649V58.973C77.6899 56.3947 80.1431 54.9414 81.9401 54.9414C83.0651 54.9414 84.1745 55.1602 84.8464 56.0509C85.5183 57.0666 85.8621 58.5198 85.8621 61.9888V92.5848H94.5811V58.0667C94.5811 55.0508 94.253 52.0194 92.456 49.7848C91.0029 47.8784 88.4403 46.5346 85.4089 46.5346ZM47.5796 92.8035H56.3143V38.2371L47.5796 39.3622V92.8035ZM51.7204 13.3604C46.564 13.3604 42.4232 17.5169 42.4232 22.6579C42.4232 27.8145 46.564 31.9711 51.7204 31.9711C56.8612 31.9711 61.0019 27.8145 61.0019 22.6579C61.0019 17.6263 56.8612 13.3604 51.7204 13.3604Z" fill="#0066B3"/>
</svg>
